<svg xmlns="http://www.w3.org/2000/svg" width="360" height="540" viewBox="0 0 360 540">
<title>The Last Lighthouse</title><desc>Original fictional film artwork for the Hrafnholt synthetic showcase. Apache-2.0.</desc>
<defs><linearGradient id="bg" x2="0" y2="1"><stop stop-color="#142936"/><stop offset=".65" stop-color="#779aac"/><stop offset="1" stop-color="#142936"/></linearGradient><radialGradient id="sun"><stop stop-color="#f3d0a0"/><stop offset="1" stop-color="#779aac"/></radialGradient><linearGradient id="shade" x2="0" y2="1"><stop stop-color="#142936" stop-opacity="0"/><stop offset="1" stop-color="#142936"/></linearGradient></defs>
<rect width="360" height="540" fill="url(#bg)"/><circle cx="85" cy="65" r="1.3" fill="#f3d0a0" opacity=".45"/><circle cx="158" cy="112" r="0.7" fill="#f3d0a0" opacity=".45"/><circle cx="231" cy="159" r="0.7" fill="#f3d0a0" opacity=".45"/><circle cx="304" cy="206" r="1.3" fill="#f3d0a0" opacity=".45"/><circle cx="17" cy="253" r="0.7" fill="#f3d0a0" opacity=".45"/><circle cx="90" cy="300" r="0.7" fill="#f3d0a0" opacity=".45"/><circle cx="163" cy="347" r="1.3" fill="#f3d0a0" opacity=".45"/><circle cx="236" cy="34" r="0.7" fill="#f3d0a0" opacity=".45"/><circle cx="309" cy="81" r="0.7" fill="#f3d0a0" opacity=".45"/><circle cx="22" cy="128" r="1.3" fill="#f3d0a0" opacity=".45"/><circle cx="95" cy="175" r="0.7" fill="#f3d0a0" opacity=".45"/><circle cx="168" cy="222" r="0.7" fill="#f3d0a0" opacity=".45"/><circle cx="241" cy="269" r="1.3" fill="#f3d0a0" opacity=".45"/><circle cx="314" cy="316" r="0.7" fill="#f3d0a0" opacity=".45"/><circle cx="27" cy="3" r="0.7" fill="#f3d0a0" opacity=".45"/><circle cx="100" cy="50" r="1.3" fill="#f3d0a0" opacity=".45"/><circle cx="173" cy="97" r="0.7" fill="#f3d0a0" opacity=".45"/><circle cx="246" cy="144" r="0.7" fill="#f3d0a0" opacity=".45"/><circle cx="319" cy="191" r="1.3" fill="#f3d0a0" opacity=".45"/><circle cx="32" cy="238" r="0.7" fill="#f3d0a0" opacity=".45"/><circle cx="105" cy="285" r="0.7" fill="#f3d0a0" opacity=".45"/><circle cx="178" cy="332" r="1.3" fill="#f3d0a0" opacity=".45"/><circle cx="251" cy="19" r="0.7" fill="#f3d0a0" opacity=".45"/><circle cx="324" cy="66" r="0.7" fill="#f3d0a0" opacity=".45"/><circle cx="37" cy="113" r="1.3" fill="#f3d0a0" opacity=".45"/><circle cx="110" cy="160" r="0.7" fill="#f3d0a0" opacity=".45"/><circle cx="183" cy="207" r="0.7" fill="#f3d0a0" opacity=".45"/><circle cx="256" cy="254" r="1.3" fill="#f3d0a0" opacity=".45"/><circle cx="329" cy="301" r="0.7" fill="#f3d0a0" opacity=".45"/><circle cx="42" cy="348" r="0.7" fill="#f3d0a0" opacity=".45"/><circle cx="115" cy="35" r="1.3" fill="#f3d0a0" opacity=".45"/><circle cx="188" cy="82" r="0.7" fill="#f3d0a0" opacity=".45"/><circle cx="261" cy="129" r="0.7" fill="#f3d0a0" opacity=".45"/><circle cx="334" cy="176" r="1.3" fill="#f3d0a0" opacity=".45"/><circle cx="47" cy="223" r="0.7" fill="#f3d0a0" opacity=".45"/><circle cx="120" cy="270" r="0.7" fill="#f3d0a0" opacity=".45"/><circle cx="193" cy="317" r="1.3" fill="#f3d0a0" opacity=".45"/><circle cx="266" cy="4" r="0.7" fill="#f3d0a0" opacity=".45"/><circle cx="339" cy="51" r="0.7" fill="#f3d0a0" opacity=".45"/><circle cx="52" cy="98" r="1.3" fill="#f3d0a0" opacity=".45"/><circle cx="125" cy="145" r="0.7" fill="#f3d0a0" opacity=".45"/><circle cx="198" cy="192" r="0.7" fill="#f3d0a0" opacity=".45"/><path d="M180 185L-50 85V315Z" fill="#f3d0a0" opacity=".1"/><path d="M180 185L410 105V270Z" fill="#f3d0a0" opacity=".16"/><path d="M-30 260 Q70 220 180 265 T390 255" fill="none" stroke="#f3d0a0" stroke-width="2" opacity="0.13"/><path d="M-30 269 Q70 231 180 274 T390 264" fill="none" stroke="#f3d0a0" stroke-width="1" opacity="0.14700000000000002"/><path d="M-30 278 Q70 242 180 283 T390 273" fill="none" stroke="#f3d0a0" stroke-width="1" opacity="0.164"/><path d="M-30 287 Q70 253 180 292 T390 282" fill="none" stroke="#f3d0a0" stroke-width="2" opacity="0.181"/><path d="M-30 296 Q70 264 180 301 T390 291" fill="none" stroke="#f3d0a0" stroke-width="1" opacity="0.198"/><path d="M-30 305 Q70 275 180 310 T390 300" fill="none" stroke="#f3d0a0" stroke-width="1" opacity="0.21500000000000002"/><path d="M-30 314 Q70 286 180 319 T390 309" fill="none" stroke="#f3d0a0" stroke-width="2" opacity="0.232"/><path d="M-30 323 Q70 297 180 328 T390 318" fill="none" stroke="#f3d0a0" stroke-width="1" opacity="0.249"/><path d="M-30 332 Q70 308 180 337 T390 327" fill="none" stroke="#f3d0a0" stroke-width="1" opacity="0.266"/><path d="M-30 341 Q70 319 180 346 T390 336" fill="none" stroke="#f3d0a0" stroke-width="2" opacity="0.28300000000000003"/><path d="M-30 350 Q70 330 180 355 T390 345" fill="none" stroke="#f3d0a0" stroke-width="1" opacity="0.30000000000000004"/><path d="M-30 359 Q70 341 180 364 T390 354" fill="none" stroke="#f3d0a0" stroke-width="1" opacity="0.317"/><path d="M-30 368 Q70 352 180 373 T390 363" fill="none" stroke="#f3d0a0" stroke-width="2" opacity="0.334"/><path d="M-30 377 Q70 363 180 382 T390 372" fill="none" stroke="#f3d0a0" stroke-width="1" opacity="0.35100000000000003"/><path d="M-30 386 Q70 374 180 391 T390 381" fill="none" stroke="#f3d0a0" stroke-width="1" opacity="0.368"/><path d="M-30 395 Q70 385 180 400 T390 390" fill="none" stroke="#f3d0a0" stroke-width="2" opacity="0.385"/><path d="M-30 404 Q70 396 180 409 T390 399" fill="none" stroke="#f3d0a0" stroke-width="1" opacity="0.402"/><path d="M-30 413 Q70 407 180 418 T390 408" fill="none" stroke="#f3d0a0" stroke-width="1" opacity="0.41900000000000004"/><path d="M153 362l16-179h22l16 179Z" fill="#f3d0a0" opacity=".8"/><rect x="166" y="170" width="28" height="24" fill="#142936" stroke="#f3d0a0"/><path d="M160 170l20-19 20 19" fill="#f3d0a0"/><rect y="340" width="360" height="200" fill="url(#shade)"/>
<rect x="17" y="17" width="326" height="506" fill="none" stroke="#f3d0a0" opacity=".25"/>
<text x="180" y="48" text-anchor="middle" fill="#f3d0a0" font-family="sans-serif" font-size="8" letter-spacing="4">A FICTIONAL FILM</text>
<text x="180" y="401" text-anchor="middle" fill="#f3d0a0" font-family="sans-serif" font-size="26" font-weight="700" letter-spacing="2">THE LAST</text><text x="180" y="432" text-anchor="middle" fill="#f3d0a0" font-family="sans-serif" font-size="26" font-weight="700" letter-spacing="2">LIGHTHOUSE</text>
<path d="M150 459h60" stroke="#f3d0a0" opacity=".6"/><text x="180" y="480" text-anchor="middle" fill="#f3d0a0" font-family="sans-serif" font-size="8" letter-spacing="3">HRAFNHOLT · DEMO 06</text>
</svg>
