<svg xmlns="http://www.w3.org/2000/svg" width="360" height="540" viewBox="0 0 360 540">
<title>Copper Skies</title><desc>Original fictional film artwork for the Hrafnholt synthetic showcase. Apache-2.0.</desc>
<defs><linearGradient id="bg" x2="0" y2="1"><stop stop-color="#372b27"/><stop offset=".65" stop-color="#aa735e"/><stop offset="1" stop-color="#372b27"/></linearGradient><radialGradient id="sun"><stop stop-color="#e9b471"/><stop offset="1" stop-color="#aa735e"/></radialGradient><linearGradient id="shade" x2="0" y2="1"><stop stop-color="#372b27" stop-opacity="0"/><stop offset="1" stop-color="#372b27"/></linearGradient></defs>
<rect width="360" height="540" fill="url(#bg)"/><circle cx="102" cy="78" r="1.3" fill="#e9b471" opacity=".45"/><circle cx="175" cy="125" r="0.7" fill="#e9b471" opacity=".45"/><circle cx="248" cy="172" r="0.7" fill="#e9b471" opacity=".45"/><circle cx="321" cy="219" r="1.3" fill="#e9b471" opacity=".45"/><circle cx="34" cy="266" r="0.7" fill="#e9b471" opacity=".45"/><circle cx="107" cy="313" r="0.7" fill="#e9b471" opacity=".45"/><circle cx="180" cy="0" r="1.3" fill="#e9b471" opacity=".45"/><circle cx="253" cy="47" r="0.7" fill="#e9b471" opacity=".45"/><circle cx="326" cy="94" r="0.7" fill="#e9b471" opacity=".45"/><circle cx="39" cy="141" r="1.3" fill="#e9b471" opacity=".45"/><circle cx="112" cy="188" r="0.7" fill="#e9b471" opacity=".45"/><circle cx="185" cy="235" r="0.7" fill="#e9b471" opacity=".45"/><circle cx="258" cy="282" r="1.3" fill="#e9b471" opacity=".45"/><circle cx="331" cy="329" r="0.7" fill="#e9b471" opacity=".45"/><circle cx="44" cy="16" r="0.7" fill="#e9b471" opacity=".45"/><circle cx="117" cy="63" r="1.3" fill="#e9b471" opacity=".45"/><circle cx="190" cy="110" r="0.7" fill="#e9b471" opacity=".45"/><circle cx="263" cy="157" r="0.7" fill="#e9b471" opacity=".45"/><circle cx="336" cy="204" r="1.3" fill="#e9b471" opacity=".45"/><circle cx="49" cy="251" r="0.7" fill="#e9b471" opacity=".45"/><circle cx="122" cy="298" r="0.7" fill="#e9b471" opacity=".45"/><circle cx="195" cy="345" r="1.3" fill="#e9b471" opacity=".45"/><circle cx="268" cy="32" r="0.7" fill="#e9b471" opacity=".45"/><circle cx="341" cy="79" r="0.7" fill="#e9b471" opacity=".45"/><circle cx="54" cy="126" r="1.3" fill="#e9b471" opacity=".45"/><circle cx="127" cy="173" r="0.7" fill="#e9b471" opacity=".45"/><circle cx="200" cy="220" r="0.7" fill="#e9b471" opacity=".45"/><circle cx="273" cy="267" r="1.3" fill="#e9b471" opacity=".45"/><circle cx="346" cy="314" r="0.7" fill="#e9b471" opacity=".45"/><circle cx="59" cy="1" r="0.7" fill="#e9b471" opacity=".45"/><circle cx="132" cy="48" r="1.3" fill="#e9b471" opacity=".45"/><circle cx="205" cy="95" r="0.7" fill="#e9b471" opacity=".45"/><circle cx="278" cy="142" r="0.7" fill="#e9b471" opacity=".45"/><circle cx="351" cy="189" r="1.3" fill="#e9b471" opacity=".45"/><circle cx="64" cy="236" r="0.7" fill="#e9b471" opacity=".45"/><circle cx="137" cy="283" r="0.7" fill="#e9b471" opacity=".45"/><circle cx="210" cy="330" r="1.3" fill="#e9b471" opacity=".45"/><circle cx="283" cy="17" r="0.7" fill="#e9b471" opacity=".45"/><circle cx="356" cy="64" r="0.7" fill="#e9b471" opacity=".45"/><circle cx="69" cy="111" r="1.3" fill="#e9b471" opacity=".45"/><circle cx="142" cy="158" r="0.7" fill="#e9b471" opacity=".45"/><circle cx="215" cy="205" r="0.7" fill="#e9b471" opacity=".45"/><circle cx="128" cy="176" r="62" fill="url(#sun)"/><circle cx="244" cy="222" r="41" fill="#e9b471" opacity=".52"/><rect x="-12" y="325" width="18" height="35" fill="#372b27"/><path d="M-6 330v20" stroke="#e9b471" stroke-width="2" stroke-dasharray="3 9" opacity=".6"/><rect x="11" y="282" width="18" height="78" fill="#372b27"/><path d="M17 287v63" stroke="#e9b471" stroke-width="2" stroke-dasharray="3 9" opacity=".6"/><rect x="34" y="239" width="18" height="121" fill="#372b27"/><path d="M40 244v106" stroke="#e9b471" stroke-width="2" stroke-dasharray="3 9" opacity=".6"/><rect x="57" y="316" width="18" height="44" fill="#372b27"/><path d="M63 321v29" stroke="#e9b471" stroke-width="2" stroke-dasharray="3 9" opacity=".6"/><rect x="80" y="273" width="18" height="87" fill="#372b27"/><path d="M86 278v72" stroke="#e9b471" stroke-width="2" stroke-dasharray="3 9" opacity=".6"/><rect x="103" y="230" width="18" height="130" fill="#372b27"/><path d="M109 235v115" stroke="#e9b471" stroke-width="2" stroke-dasharray="3 9" opacity=".6"/><rect x="126" y="307" width="18" height="53" fill="#372b27"/><path d="M132 312v38" stroke="#e9b471" stroke-width="2" stroke-dasharray="3 9" opacity=".6"/><rect x="149" y="264" width="18" height="96" fill="#372b27"/><path d="M155 269v81" stroke="#e9b471" stroke-width="2" stroke-dasharray="3 9" opacity=".6"/><rect x="172" y="221" width="18" height="139" fill="#372b27"/><path d="M178 226v124" stroke="#e9b471" stroke-width="2" stroke-dasharray="3 9" opacity=".6"/><rect x="195" y="298" width="18" height="62" fill="#372b27"/><path d="M201 303v47" stroke="#e9b471" stroke-width="2" stroke-dasharray="3 9" opacity=".6"/><rect x="218" y="255" width="18" height="105" fill="#372b27"/><path d="M224 260v90" stroke="#e9b471" stroke-width="2" stroke-dasharray="3 9" opacity=".6"/><rect x="241" y="212" width="18" height="148" fill="#372b27"/><path d="M247 217v133" stroke="#e9b471" stroke-width="2" stroke-dasharray="3 9" opacity=".6"/><rect x="264" y="289" width="18" height="71" fill="#372b27"/><path d="M270 294v56" stroke="#e9b471" stroke-width="2" stroke-dasharray="3 9" opacity=".6"/><rect x="287" y="246" width="18" height="114" fill="#372b27"/><path d="M293 251v99" stroke="#e9b471" stroke-width="2" stroke-dasharray="3 9" opacity=".6"/><rect x="310" y="323" width="18" height="37" fill="#372b27"/><path d="M316 328v22" stroke="#e9b471" stroke-width="2" stroke-dasharray="3 9" opacity=".6"/><rect x="333" y="280" width="18" height="80" fill="#372b27"/><path d="M339 285v65" stroke="#e9b471" stroke-width="2" stroke-dasharray="3 9" opacity=".6"/><rect x="356" y="237" width="18" height="123" fill="#372b27"/><path d="M362 242v108" stroke="#e9b471" stroke-width="2" stroke-dasharray="3 9" opacity=".6"/><path d="M-30 260 Q70 220 180 265 T390 255" fill="none" stroke="#e9b471" stroke-width="2" opacity="0.13"/><path d="M-30 269 Q70 231 180 274 T390 264" fill="none" stroke="#e9b471" stroke-width="1" opacity="0.14700000000000002"/><path d="M-30 278 Q70 242 180 283 T390 273" fill="none" stroke="#e9b471" stroke-width="1" opacity="0.164"/><path d="M-30 287 Q70 253 180 292 T390 282" fill="none" stroke="#e9b471" stroke-width="2" opacity="0.181"/><path d="M-30 296 Q70 264 180 301 T390 291" fill="none" stroke="#e9b471" stroke-width="1" opacity="0.198"/><path d="M-30 305 Q70 275 180 310 T390 300" fill="none" stroke="#e9b471" stroke-width="1" opacity="0.21500000000000002"/><path d="M-30 314 Q70 286 180 319 T390 309" fill="none" stroke="#e9b471" stroke-width="2" opacity="0.232"/><path d="M-30 323 Q70 297 180 328 T390 318" fill="none" stroke="#e9b471" stroke-width="1" opacity="0.249"/><path d="M-30 332 Q70 308 180 337 T390 327" fill="none" stroke="#e9b471" stroke-width="1" opacity="0.266"/><path d="M-30 341 Q70 319 180 346 T390 336" fill="none" stroke="#e9b471" stroke-width="2" opacity="0.28300000000000003"/><path d="M-30 350 Q70 330 180 355 T390 345" fill="none" stroke="#e9b471" stroke-width="1" opacity="0.30000000000000004"/><path d="M-30 359 Q70 341 180 364 T390 354" fill="none" stroke="#e9b471" stroke-width="1" opacity="0.317"/><path d="M-30 368 Q70 352 180 373 T390 363" fill="none" stroke="#e9b471" stroke-width="2" opacity="0.334"/><path d="M-30 377 Q70 363 180 382 T390 372" fill="none" stroke="#e9b471" stroke-width="1" opacity="0.35100000000000003"/><path d="M-30 386 Q70 374 180 391 T390 381" fill="none" stroke="#e9b471" stroke-width="1" opacity="0.368"/><path d="M-30 395 Q70 385 180 400 T390 390" fill="none" stroke="#e9b471" stroke-width="2" opacity="0.385"/><path d="M-30 404 Q70 396 180 409 T390 399" fill="none" stroke="#e9b471" stroke-width="1" opacity="0.402"/><path d="M-30 413 Q70 407 180 418 T390 408" fill="none" stroke="#e9b471" stroke-width="1" opacity="0.41900000000000004"/><rect y="340" width="360" height="200" fill="url(#shade)"/>
<rect x="17" y="17" width="326" height="506" fill="none" stroke="#e9b471" opacity=".25"/>
<text x="180" y="48" text-anchor="middle" fill="#e9b471" font-family="sans-serif" font-size="8" letter-spacing="4">A FICTIONAL FILM</text>
<text x="180" y="401" text-anchor="middle" fill="#e9b471" font-family="sans-serif" font-size="26" font-weight="700" letter-spacing="2">COPPER</text><text x="180" y="432" text-anchor="middle" fill="#e9b471" font-family="sans-serif" font-size="26" font-weight="700" letter-spacing="2">SKIES</text>
<path d="M150 459h60" stroke="#e9b471" opacity=".6"/><text x="180" y="480" text-anchor="middle" fill="#e9b471" font-family="sans-serif" font-size="8" letter-spacing="3">HRAFNHOLT · DEMO 07</text>
</svg>
